<?xml version="1.0" encoding="UTF-8"?>
<svg width="40px" height="40px" viewBox="0 0 40 40" version="1.1" xmlns="http://www.w3.org/2000/svg" xmlns:xlink="http://www.w3.org/1999/xlink">
    <!-- Generator: Sketch 48.2 (47327) - http://www.bohemiancoding.com/sketch -->
    <title>item</title>
    <desc>Created with Sketch.</desc>
    <defs></defs>
    <g id="Page-1" stroke="none" stroke-width="1" fill="none" fill-rule="evenodd">
        <g id="item" transform="translate(4.000000, 8.000000)" fill="#666666" fill-rule="nonzero">
            <path d="M32,4.8 C32,5.4632814 31.2048613,6 30.2222222,6 L1.77777778,6 C0.795138667,6 0,5.4632814 0,4.8 L0,1.2 C0,0.5367186 0.795138667,0 1.77777778,0 L30.2222222,0 C31.2048613,0 32,0.5367186 32,1.2 L32,4.8 Z" id="Shape"></path>
            <path d="M32,13.8 C32,14.4632814 31.2048613,15 30.2222222,15 L1.77777778,15 C0.795138667,15 0,14.4632814 0,13.8 L0,10.2 C0,9.5367186 0.795138667,9 1.77777778,9 L30.2222222,9 C31.2048613,9 32,9.5367186 32,10.2 L32,13.8 Z" id="Shape"></path>
            <path d="M32,22.8 C32,23.4632814 31.2048613,24 30.2222222,24 L1.77777778,24 C0.795138667,24 0,23.4632814 0,22.8 L0,19.2 C0,18.5367186 0.795138667,18 1.77777778,18 L30.2222222,18 C31.2048613,18 32,18.5367186 32,19.2 L32,22.8 Z" id="Shape"></path>
        </g>
    </g>
</svg>
